<svg width="46" height="16" viewBox="0 0 46 16" fill="none" xmlns="http://www.w3.org/2000/svg">
<path d="M11.79 1V3.08H7.33005V15H5.25005V3.08H0.800049V1H11.79Z" fill="#3F3D56"/>
<path d="M20.0543 5H22.1343V15H20.0443L19.9643 13.55C19.6709 14.0633 19.2743 14.4767 18.7743 14.79C18.2743 15.1033 17.6843 15.26 17.0043 15.26C16.2709 15.26 15.5809 15.1233 14.9343 14.85C14.2876 14.57 13.7176 14.1833 13.2243 13.69C12.7376 13.1967 12.3576 12.63 12.0843 11.99C11.8109 11.3433 11.6743 10.65 11.6743 9.91C11.6743 9.19667 11.8076 8.52667 12.0743 7.9C12.3409 7.26667 12.7109 6.71333 13.1843 6.24C13.6576 5.76667 14.2043 5.39667 14.8243 5.13C15.4509 4.85667 16.1209 4.72 16.8343 4.72C17.5609 4.72 18.2009 4.88667 18.7543 5.22C19.3143 5.54667 19.7776 5.96667 20.1443 6.48L20.0543 5ZM16.9543 13.25C17.5409 13.25 18.0543 13.1067 18.4943 12.82C18.9343 12.5267 19.2743 12.1333 19.5143 11.64C19.7609 11.1467 19.8843 10.6 19.8843 10C19.8843 9.39333 19.7609 8.84333 19.5143 8.35C19.2676 7.85667 18.9243 7.46667 18.4843 7.18C18.0509 6.88667 17.5409 6.74 16.9543 6.74C16.3743 6.74 15.8443 6.88667 15.3643 7.18C14.8843 7.47333 14.5043 7.86667 14.2243 8.36C13.9443 8.85333 13.8043 9.4 13.8043 10C13.8043 10.6067 13.9476 11.1567 14.2343 11.65C14.5276 12.1367 14.9109 12.5267 15.3843 12.82C15.8643 13.1067 16.3876 13.25 16.9543 13.25Z" fill="#3F3D56"/>
<path d="M27.1297 15.19C26.6031 15.1567 26.0897 15.05 25.5897 14.87C25.0897 14.69 24.6497 14.4467 24.2697 14.14C23.8964 13.8267 23.6164 13.46 23.4297 13.04L25.1997 12.28C25.2864 12.46 25.4364 12.6367 25.6497 12.81C25.8697 12.9833 26.1264 13.1267 26.4197 13.24C26.7131 13.3467 27.0197 13.4 27.3397 13.4C27.6531 13.4 27.9431 13.3567 28.2097 13.27C28.4831 13.1767 28.7064 13.0367 28.8797 12.85C29.0531 12.6633 29.1397 12.44 29.1397 12.18C29.1397 11.8867 29.0397 11.66 28.8397 11.5C28.6464 11.3333 28.4031 11.2067 28.1097 11.12C27.8164 11.0333 27.5231 10.95 27.2297 10.87C26.5764 10.7233 25.9764 10.5233 25.4297 10.27C24.8897 10.01 24.4597 9.68 24.1397 9.28C23.8197 8.87333 23.6597 8.37667 23.6597 7.79C23.6597 7.15 23.8331 6.59667 24.1797 6.13C24.5264 5.65667 24.9797 5.29333 25.5397 5.04C26.1064 4.78667 26.7097 4.66 27.3497 4.66C28.1497 4.66 28.8831 4.83 29.5497 5.17C30.2164 5.51 30.7264 5.97667 31.0797 6.57L29.4297 7.55C29.3297 7.35 29.1797 7.17 28.9797 7.01C28.7797 6.85 28.5531 6.72333 28.2997 6.63C28.0464 6.53 27.7831 6.47333 27.5097 6.46C27.1697 6.44667 26.8531 6.48667 26.5597 6.58C26.2731 6.66667 26.0431 6.80667 25.8697 7C25.6964 7.19333 25.6097 7.44 25.6097 7.74C25.6097 8.03333 25.7131 8.25333 25.9197 8.4C26.1264 8.54 26.3864 8.65333 26.6997 8.74C27.0197 8.82667 27.3464 8.92333 27.6797 9.03C28.2731 9.21667 28.8297 9.44667 29.3497 9.72C29.8697 9.98667 30.2897 10.3167 30.6097 10.71C30.9297 11.1033 31.0831 11.5833 31.0697 12.15C31.0697 12.7767 30.8797 13.3267 30.4997 13.8C30.1264 14.2733 29.6397 14.6333 29.0397 14.88C28.4397 15.1267 27.8031 15.23 27.1297 15.19Z" fill="#3F3D56"/>
<path d="M41.3321 15H38.9321L36.4721 10.76L34.8621 12.68V15H32.7821V0H34.8621V9.45L38.5821 5H41.3021L37.8921 9.07L41.3321 15Z" fill="#3F3D56"/>
<path d="M42.9188 5H44.9988V15H42.9188V5ZM43.9788 3.55C43.6588 3.55 43.3921 3.44667 43.1788 3.24C42.9655 3.03333 42.8588 2.77333 42.8588 2.46C42.8588 2.15333 42.9655 1.89667 43.1788 1.69C43.3921 1.47667 43.6555 1.37 43.9688 1.37C44.2755 1.37 44.5355 1.47667 44.7488 1.69C44.9621 1.89667 45.0688 2.15333 45.0688 2.46C45.0688 2.77333 44.9621 3.03333 44.7488 3.24C44.5421 3.44667 44.2855 3.55 43.9788 3.55Z" fill="#3F3D56"/>
</svg>
